<?xml version="1.0" encoding="iso-8859-1"?>
<!-- Uploaded to: SVG Repo, www.svgrepo.com, Generator: SVG Repo Mixer Tools -->
<svg height="800px" width="800px" version="1.1" id="Layer_1" xmlns="http://www.w3.org/2000/svg" xmlns:xlink="http://www.w3.org/1999/xlink" 
	 viewBox="0 0 512 512" xml:space="preserve">
<path style="fill:#00CF40;" d="M503.983,221.795C503.983,103.729,392.957,8.017,256,8.017S8.017,103.729,8.017,221.795
	c0,115.386,106.047,209.405,238.702,213.614c-7.676,23.956-14.802,43.271-24.923,68.574
	C324.409,503.983,503.983,409.921,503.983,221.795z"/>
<path style="fill:#20A83E;" d="M42.221,221.795c0-113.11,101.903-205.688,230.881-213.264C267.45,8.199,261.751,8.017,256,8.017
	c-136.957,0-247.983,95.712-247.983,213.779c0,114.814,105.003,208.458,236.735,213.532l1.745-3.094
	C130.389,414.431,42.221,327.002,42.221,221.795z"/>
<g>
	<path style="fill:#FFFFFF;" d="M140.56,277.378H93.528V170.489c0-7.084-5.743-12.827-12.827-12.827s-12.827,5.743-12.827,12.827
		v119.716c0,7.084,5.743,12.827,12.827,12.827h59.858c7.084,0,12.827-5.743,12.827-12.827
		C153.386,283.121,147.643,277.378,140.56,277.378z"/>
	<path style="fill:#FFFFFF;" d="M431.299,277.378h-47.031v-34.205h29.929c7.084,0,12.827-5.743,12.827-12.827
		s-5.743-12.827-12.827-12.827h-29.929v-34.205h47.031c7.084,0,12.827-5.743,12.827-12.827s-5.743-12.827-12.827-12.827h-59.858
		c-7.084,0-12.827,5.743-12.827,12.827v119.716c0,7.084,5.743,12.827,12.827,12.827h59.858c7.084,0,12.827-5.743,12.827-12.827
		C444.125,283.121,438.382,277.378,431.299,277.378z"/>
	<path style="fill:#FFFFFF;" d="M191.866,157.662c-7.084,0-12.827,5.743-12.827,12.827v119.716c0,7.084,5.743,12.827,12.827,12.827
		s12.827-5.743,12.827-12.827V170.489C204.693,163.405,198.95,157.662,191.866,157.662z"/>
	<path style="fill:#FFFFFF;" d="M315.858,157.662c-7.084,0-12.827,5.743-12.827,12.827v71.416l-44.446-77.781
		c-2.885-5.049-8.806-7.527-14.429-6.033c-5.621,1.492-9.535,6.58-9.535,12.397v119.716c0,7.084,5.743,12.827,12.827,12.827
		s12.827-5.743,12.827-12.827v-71.416l44.446,77.781c2.324,4.066,6.616,6.464,11.136,6.464c1.092,0,2.199-0.14,3.293-0.431
		c5.621-1.492,9.535-6.58,9.535-12.397V170.489C328.685,163.405,322.942,157.662,315.858,157.662z"/>
</g>
<path d="M396.795,36.509c-3.844-2.196-8.741-0.862-10.937,2.983c-2.198,3.845-0.862,8.741,2.983,10.937
	c67.078,38.325,107.126,102.387,107.126,171.366c0,102.67-54.196,168.381-99.66,205.426
	c-47.584,38.771-110.035,64.806-162.552,68.335c8.312-21.243,14.353-38.204,20.599-57.7c1.599-4.994-2.146-10.293-7.38-10.458
	c-129.5-4.111-230.94-94.422-230.94-205.604C16.033,108.338,123.682,16.033,256,16.033c34.773,0,68.312,6.241,99.684,18.549
	c4.12,1.62,8.773-0.415,10.391-4.534c1.618-4.122-0.414-8.773-4.534-10.391C328.296,6.613,292.786,0,256,0
	C187.84,0,123.707,22.928,75.416,64.559C26.783,106.483,0,162.324,0,221.795c0,58.023,25.672,112.885,72.285,154.48
	c43.692,38.989,101.431,62.436,163.56,66.621c-6.125,18.436-12.486,35.594-21.492,58.109c-2.073,5.182,1.873,10.995,7.443,10.995
	c27.438,0,58.631-6.277,90.204-18.15c33.918-12.755,66.573-31.497,94.435-54.198c31.889-25.985,57.121-56.495,74.992-90.685
	C501.713,310.156,512,267.37,512,221.795C512,146.99,468.932,77.724,396.795,36.509z"/>
<path d="M80.701,149.645c-11.493,0-20.843,9.351-20.843,20.843v119.716c0,11.493,9.351,20.843,20.843,20.843h59.858
	c11.493,0,20.843-9.351,20.843-20.843c0-11.493-9.351-20.843-20.843-20.843h-39.015v-98.873
	C101.545,158.996,92.194,149.645,80.701,149.645z M140.56,285.395c2.652,0,4.81,2.158,4.81,4.81s-2.158,4.81-4.81,4.81H80.701
	c-2.652,0-4.81-2.158-4.81-4.81V170.489c0-2.652,2.158-4.81,4.81-4.81c2.652,0,4.81,2.158,4.81,4.81v106.889
	c0,4.428,3.588,8.017,8.017,8.017H140.56z"/>
<path d="M431.299,191.332c11.493,0,20.843-9.351,20.843-20.843c0-11.493-9.351-20.843-20.843-20.843h-59.858
	c-11.493,0-20.843,9.351-20.843,20.843v119.716c0,11.493,9.351,20.843,20.843,20.843h59.858c11.493,0,20.843-9.351,20.843-20.843
	c0-11.493-9.351-20.843-20.843-20.843h-39.015V251.19h21.912c11.493,0,20.843-9.351,20.843-20.843
	c0-11.493-9.351-20.843-20.843-20.843h-21.912v-18.171H431.299z M384.267,225.537h29.929c2.652,0,4.81,2.158,4.81,4.81
	s-2.158,4.81-4.81,4.81h-29.929c-4.428,0-8.017,3.588-8.017,8.017v34.205c0,4.428,3.588,8.017,8.017,8.017h47.031
	c2.652,0,4.81,2.158,4.81,4.81s-2.158,4.81-4.81,4.81h-59.858c-2.652,0-4.81-2.158-4.81-4.81V170.489c0-2.652,2.158-4.81,4.81-4.81
	h59.858c2.652,0,4.81,2.158,4.81,4.81c0,2.652-2.158,4.81-4.81,4.81h-47.031c-4.428,0-8.017,3.588-8.017,8.017v34.205
	C376.251,221.948,379.839,225.537,384.267,225.537z"/>
<path d="M171.023,170.489v119.716c0,11.493,9.351,20.843,20.843,20.843s20.843-9.351,20.843-20.843V170.489
	c0-11.493-9.351-20.843-20.843-20.843S171.023,158.996,171.023,170.489z M196.676,170.489v119.716c0,2.652-2.158,4.81-4.81,4.81
	s-4.81-2.158-4.81-4.81V170.489c0-2.652,2.158-4.81,4.81-4.81S196.676,167.837,196.676,170.489z"/>
<path d="M295.015,170.489v41.228l-29.468-51.57c-4.683-8.197-14.327-12.226-23.447-9.804c-9.122,2.423-15.494,10.707-15.494,20.145
	v119.716c0,11.493,9.351,20.843,20.843,20.843s20.843-9.351,20.843-20.843v-41.228l29.468,51.571
	c3.703,6.479,10.637,10.502,18.096,10.502c1.804,0,3.606-0.236,5.351-0.699c9.122-2.423,15.494-10.707,15.494-20.145V170.489
	c0-11.493-9.351-20.843-20.843-20.843C304.365,149.645,295.015,158.996,295.015,170.489z M320.668,170.489v119.716
	c0,4.798-6.596,6.568-8.986,2.387l-44.446-77.781c-1.865-3.265-5.877-4.808-9.451-3.642c-3.259,1.064-5.526,4.19-5.526,7.619v71.417
	c0,2.652-2.158,4.81-4.81,4.81c-2.652,0-4.81-2.158-4.81-4.81V170.489c0-4.806,6.597-6.57,8.986-2.387l44.446,77.781
	c1.804,3.156,5.508,4.701,9.018,3.771c3.513-0.933,5.959-4.114,5.959-7.748v-71.417c0-2.652,2.158-4.81,4.81-4.81
	C318.51,165.678,320.668,167.837,320.668,170.489z"/>
</svg>